<svg xmlns="http://www.w3.org/2000/svg" xmlns:xlink="http://www.w3.org/1999/xlink" width="50" zoomAndPan="magnify" viewBox="0 0 37.5 37.499999" height="50" preserveAspectRatio="xMidYMid meet" version="1.0"><defs><clipPath id="e48c81d798"><path d="M 3.128906 6 L 11 6 L 11 19 L 3.128906 19 Z M 3.128906 6 " clip-rule="nonzero"/></clipPath><clipPath id="eb12830fdd"><path d="M 26 16 L 34.628906 16 L 34.628906 29 L 26 29 Z M 26 16 " clip-rule="nonzero"/></clipPath><clipPath id="0efa6f56c9"><path d="M 15 5 L 34.628906 5 L 34.628906 23 L 15 23 Z M 15 5 " clip-rule="nonzero"/></clipPath><clipPath id="6ea431b5c9"><path d="M 3.128906 17 L 8 17 L 8 25 L 3.128906 25 Z M 3.128906 17 " clip-rule="nonzero"/></clipPath><clipPath id="af6cc7a3db"><path d="M 13 23 L 32 23 L 32 36.820312 L 13 36.820312 Z M 13 23 " clip-rule="nonzero"/></clipPath><clipPath id="daf02d55f3"><path d="M 3.128906 18 L 20 18 L 20 32 L 3.128906 32 Z M 3.128906 18 " clip-rule="nonzero"/></clipPath><clipPath id="b0b0d3878c"><path d="M 7 0.820312 L 17 0.820312 L 17 18 L 7 18 Z M 7 0.820312 " clip-rule="nonzero"/></clipPath></defs><g clip-path="url(#e48c81d798)"><path fill="#fb4d48" d="M 9.601562 18.160156 C 9.699219 18.222656 9.832031 18.210938 9.914062 18.128906 L 10.339844 17.722656 C 10.324219 17.707031 10.3125 17.691406 10.300781 17.675781 C 9.050781 15.941406 6.261719 11.605469 5.773438 7.039062 C 5.75 6.847656 5.539062 6.75 5.378906 6.859375 C 4.023438 7.769531 3.128906 9.308594 3.128906 11.058594 L 3.128906 13.757812 C 3.128906 13.839844 3.171875 13.921875 3.242188 13.964844 L 9.601562 18.160156 " fill-opacity="1" fill-rule="nonzero"/></g><g clip-path="url(#eb12830fdd)"><path fill="#004aad" d="M 34.207031 16.84375 L 26.933594 23.832031 C 26.816406 23.945312 26.835938 24.132812 26.96875 24.21875 L 33.773438 28.714844 C 33.898438 28.796875 34.070312 28.753906 34.136719 28.621094 C 34.453125 27.960938 34.628906 27.222656 34.628906 26.441406 L 34.628906 17.019531 C 34.628906 16.800781 34.367188 16.6875 34.207031 16.84375 " fill-opacity="1" fill-rule="nonzero"/></g><g clip-path="url(#0efa6f56c9)"><path fill="#cb6ce6" d="M 29.542969 5.992188 L 26.375 5.992188 C 26.3125 5.992188 26.25 6.019531 26.203125 6.0625 L 15.542969 16.308594 C 15.429688 16.417969 15.445312 16.609375 15.578125 16.695312 L 24.328125 22.476562 C 24.425781 22.539062 24.554688 22.527344 24.640625 22.449219 L 29.542969 17.734375 C 29.65625 17.625 29.640625 17.4375 29.503906 17.347656 L 25.164062 14.488281 C 25.03125 14.398438 25.015625 14.210938 25.128906 14.101562 L 26.671875 12.621094 C 26.753906 12.539062 26.886719 12.527344 26.984375 12.589844 L 31.507812 15.574219 C 31.605469 15.636719 31.738281 15.625 31.820312 15.546875 L 34.554688 12.917969 C 34.601562 12.871094 34.628906 12.804688 34.628906 12.738281 L 34.628906 11.058594 C 34.628906 8.261719 32.351562 5.992188 29.542969 5.992188 " fill-opacity="1" fill-rule="nonzero"/></g><path fill="#004aad" d="M 18.050781 10.308594 L 22.09375 6.421875 C 22.257812 6.265625 22.144531 5.992188 21.921875 5.992188 L 18.585938 5.992188 C 18.453125 5.992188 18.34375 6.097656 18.339844 6.230469 C 18.28125 7.53125 18.015625 8.824219 17.640625 10.058594 C 17.5625 10.304688 17.863281 10.488281 18.050781 10.308594 " fill-opacity="1" fill-rule="nonzero"/><g clip-path="url(#6ea431b5c9)"><path fill="#cb6ce6" d="M 7.636719 20.320312 C 7.75 20.210938 7.734375 20.023438 7.601562 19.933594 L 3.519531 17.246094 C 3.351562 17.132812 3.128906 17.253906 3.128906 17.453125 L 3.128906 24.066406 C 3.128906 24.285156 3.394531 24.398438 3.554688 24.246094 L 7.636719 20.320312 " fill-opacity="1" fill-rule="nonzero"/></g><g clip-path="url(#af6cc7a3db)"><path fill="#fb4d48" d="M 21.558594 23.742188 C 21.460938 23.679688 21.328125 23.691406 21.246094 23.773438 L 13.644531 31.078125 C 13.480469 31.234375 13.59375 31.507812 13.816406 31.507812 L 20.617188 31.507812 C 20.785156 31.507812 20.941406 31.578125 21.050781 31.707031 L 25.066406 36.398438 C 25.40625 36.796875 26.0625 36.554688 26.0625 36.03125 L 26.0625 32.070312 C 26.0625 31.761719 26.316406 31.507812 26.628906 31.507812 L 29.542969 31.507812 C 30.355469 31.507812 31.125 31.3125 31.808594 30.972656 C 31.984375 30.886719 32.003906 30.644531 31.839844 30.539062 L 21.558594 23.742188 " fill-opacity="1" fill-rule="nonzero"/></g><g clip-path="url(#daf02d55f3)"><path fill="#004aad" d="M 18.917969 22 L 13.578125 18.472656 C 13.480469 18.40625 13.347656 18.417969 13.265625 18.5 L 3.496094 27.890625 C 3.425781 27.957031 3.398438 28.0625 3.433594 28.15625 C 4.136719 30.109375 6.015625 31.507812 8.21875 31.507812 L 9.363281 31.507812 C 9.429688 31.507812 9.488281 31.484375 9.535156 31.4375 L 18.953125 22.386719 C 19.066406 22.277344 19.050781 22.085938 18.917969 22 " fill-opacity="1" fill-rule="nonzero"/></g><g clip-path="url(#b0b0d3878c)"><path fill="#004aad" d="M 12.027344 7.578125 C 10.980469 7.578125 10.132812 6.738281 10.132812 5.695312 C 10.132812 4.65625 10.980469 3.8125 12.027344 3.8125 C 13.070312 3.8125 13.917969 4.65625 13.917969 5.695312 C 13.917969 6.738281 13.070312 7.578125 12.027344 7.578125 Z M 7.164062 5.96875 C 7.28125 10.511719 10.257812 15.105469 11.492188 16.824219 C 11.753906 17.1875 12.292969 17.191406 12.554688 16.828125 C 13.816406 15.074219 16.890625 10.324219 16.890625 5.6875 C 16.890625 3.015625 14.714844 0.84375 12.027344 0.84375 C 9.1875 0.84375 7.09375 3.269531 7.164062 5.96875 " fill-opacity="1" fill-rule="nonzero"/></g></svg>