<svg xmlns="http://www.w3.org/2000/svg" xmlns:xlink="http://www.w3.org/1999/xlink" width="100" zoomAndPan="magnify" viewBox="0 0 75 74.999997" height="100" preserveAspectRatio="xMidYMid meet" version="1.0"><defs><clipPath id="129900b29b"><path d="M 4 6 L 72 6 L 72 68.925781 L 4 68.925781 Z M 4 6 " clip-rule="nonzero"/></clipPath></defs><g clip-path="url(#129900b29b)"><path fill="#0c4a6e" d="M 61.359375 47.210938 C 55.917969 45.554688 53.121094 39.605469 53.5 34.234375 C 52.691406 33.414062 51.679688 32.808594 50.570312 32.484375 C 50.960938 32 51.191406 31.394531 51.191406 30.71875 C 51.191406 29.171875 49.9375 27.921875 48.382812 27.921875 C 46.832031 27.921875 45.574219 29.171875 45.574219 30.71875 C 45.574219 31.460938 45.859375 32.121094 46.320312 32.617188 C 45.144531 33.050781 44.105469 33.789062 43.308594 34.800781 C 41.902344 32.011719 39.109375 30.289062 36.097656 30.183594 C 36.625 29.507812 36.933594 28.648438 36.933594 27.730469 C 36.933594 25.523438 35.140625 23.734375 32.925781 23.734375 C 30.710938 23.734375 28.917969 25.523438 28.917969 27.730469 C 28.917969 29.386719 29.929688 30.8125 31.375 31.421875 C 28.78125 33.007812 27.1875 35.917969 27.378906 39.066406 C 25.824219 37.71875 23.851562 37.0625 21.882812 37.113281 C 22.015625 36.777344 22.097656 36.414062 22.097656 36.023438 C 22.097656 34.476562 20.84375 33.222656 19.289062 33.222656 C 17.738281 33.222656 16.480469 34.476562 16.480469 36.023438 C 16.480469 37.019531 17.007812 37.894531 17.792969 38.394531 C 15.078125 40.15625 13.6875 43.386719 14.308594 46.589844 C 13.835938 45.164062 13.335938 43.671875 12.835938 42.1875 C 11.511719 38.273438 10.203125 34.367188 9.554688 31.933594 L 9.476562 31.636719 C 8.921875 29.5625 8.152344 26.585938 10.054688 25.875 L 12.109375 25.105469 C 22.164062 21.324219 51.570312 10.246094 56.148438 10.515625 C 58.875 10.675781 59.265625 13.394531 59.75 16.640625 C 59.898438 17.6875 60.0625 18.78125 60.304688 19.910156 C 58.683594 20.609375 57.269531 21.957031 56.175781 23.746094 C 54.730469 26.128906 53.839844 29.375 53.839844 32.929688 C 53.839844 36.0625 54.351562 39.105469 56.175781 42.109375 C 57.496094 44.289062 59.292969 45.796875 61.359375 46.296875 Z M 63.113281 23.625 C 60.792969 23.855469 58.957031 27.558594 58.957031 32.078125 C 58.957031 36.75 60.925781 40.546875 63.34375 40.546875 C 65.609375 40.546875 67.472656 37.25 67.703125 33.007812 C 67.691406 35.621094 67.136719 37.882812 66.230469 39.550781 C 65.4375 41.019531 64.410156 41.972656 63.328125 42.1875 L 63.277344 42.203125 L 63.179688 42.214844 L 63.058594 42.230469 L 62.910156 42.230469 C 61.804688 42.230469 60.710938 41.339844 59.832031 39.914062 C 58.765625 38.164062 58.117188 35.699219 58.117188 32.929688 C 58.117188 30.15625 58.78125 27.703125 59.832031 25.941406 C 60.695312 24.515625 61.789062 23.625 62.910156 23.625 C 62.976562 23.625 63.046875 23.625 63.113281 23.625 Z M 5.355469 32.699219 Z M 48.707031 56.511719 L 50.910156 56.457031 C 61.480469 56.1875 65.652344 56.09375 65.652344 49.648438 L 65.652344 45.878906 C 67.40625 45.097656 68.90625 43.589844 70.011719 41.558594 C 71.253906 39.269531 71.996094 36.28125 71.996094 32.914062 C 71.996094 29.453125 71.09375 26.171875 69.621094 23.761719 C 68.339844 21.648438 66.609375 20.140625 64.625 19.585938 C 64.355469 18.417969 64.179688 17.179688 64.003906 16.019531 C 63.25 10.90625 62.628906 6.625 56.429688 6.261719 C 50.921875 5.925781 20.898438 17.246094 10.609375 21.109375 L 8.570312 21.875 C 3.046875 23.949219 4.414062 29.089844 5.355469 32.699219 L 5.425781 32.980469 C 6.113281 35.578125 7.449219 39.550781 8.785156 43.523438 C 9.839844 46.632812 10.890625 49.753906 11.621094 52.203125 C 12.054688 53.660156 12.539062 54.707031 13.511719 55.53125 C 14.484375 56.335938 15.710938 56.714844 17.589844 56.78125 L 17.722656 56.78125 L 37.679688 56.148438 L 39.351562 63.96875 L 40.417969 68.925781 L 43.226562 64.710938 Z M 63.277344 42.1875 Z M 63.277344 42.1875 " fill-opacity="1" fill-rule="nonzero"/></g></svg>